<?xml version="1.0" encoding="utf-8"?>
<!-- Generator: Adobe Illustrator 18.0.0, SVG Export Plug-In . SVG Version: 6.00 Build 0)  -->
<!DOCTYPE svg PUBLIC "-//W3C//DTD SVG 1.1//EN" "http://www.w3.org/Graphics/SVG/1.1/DTD/svg11.dtd">
<svg version="1.1" id="Layer_1" xmlns="http://www.w3.org/2000/svg" xmlns:xlink="http://www.w3.org/1999/xlink" x="0px" y="0px"
	 viewBox="0 0 142.1 30" enable-background="new 0 0 142.1 30" xml:space="preserve">
<g>
	<path d="M1.5,2h4.1c3.2,0,4,1.7,4,4.2v17.6c0,2.6-0.8,4.2-4,4.2H1.5V2z M5.1,25.9c1.6,0,2.1-0.5,2.1-2V6c0-1.5-0.5-2-2.1-2H3.8v22
		H5.1z"/>
	<path d="M19.2,20.7H15l-1,7.2h-2.4l3.8-26h3.2l3.8,26h-2.4L19.2,20.7z M17.2,3.8L17.2,3.8l-1.9,15H19L17.2,3.8z"/>
	<path d="M29.8,2h2.4l-3,26h-3.5l-3-26h2.4l2.3,23.6h0.1L29.8,2z"/>
	<path d="M34.3,2h2.4v26h-2.4V2z"/>
	<path d="M40.4,2h4.1c3.2,0,4,1.7,4,4.2v17.6c0,2.6-0.8,4.2-4,4.2h-4.1V2z M44.1,25.9c1.6,0,2.1-0.5,2.1-2V6c0-1.5-0.5-2-2.1-2h-1.3
		v22H44.1z"/>
	<path d="M62.3,5.4c0-1.1-0.4-1.7-1.3-1.7c-0.9,0-1.3,0.5-1.3,1.7v19.1c0,1.1,0.4,1.7,1.3,1.7c0.9,0,1.3-0.5,1.3-1.7v-3.6h2.4v3.7
		c0,2.2-1.2,3.6-3.7,3.6c-2.5,0-3.7-1.4-3.7-3.6V5.3c0-2.2,1.2-3.6,3.7-3.6c2.5,0,3.7,1.4,3.7,3.6v3.4h-2.4V5.4z"/>
	<path d="M73.5,20.7h-4.2l-1,7.2H66l3.8-26h3.2l3.8,26h-2.4L73.5,20.7z M71.5,3.8L71.5,3.8l-1.9,15h3.7L71.5,3.8z"/>
	<path d="M83.8,5.5c0-1-0.3-1.8-1.4-1.8c-1.1,0-1.4,0.8-1.4,1.8v2.7c0,0.8,0.1,1.7,0.5,2.3l3.8,6.5c0.5,0.9,0.9,2,0.9,3.2v4.1
		c0,2.4-1.4,3.8-3.8,3.8c-2.6,0-3.9-1.2-3.9-3.8v-3.6h2.4v3.4c0,1.2,0.5,1.9,1.5,1.9c1,0,1.4-0.7,1.4-1.9v-3.6
		c0-0.9-0.2-1.6-0.7-2.5L79.7,12c-0.6-1.1-1-2-1-3.3V5.6c0-2.6,1.3-3.8,3.7-3.8c2.7,0,3.7,1.3,3.7,3.6v3.3h-2.4V5.5z"/>
	<path d="M95.5,20.7h-4.2l-1,7.2H88l3.8-26H95l3.8,26h-2.4L95.5,20.7z M93.4,3.8L93.4,3.8l-1.9,15h3.7L93.4,3.8z"/>
	<path d="M106.1,2h2.4l-3,26H102L99,2h2.4l2.3,23.6h0.1L106.1,2z"/>
	<path d="M116.2,20.7H112l-1,7.2h-2.4l3.8-26h3.2l3.8,26h-2.4L116.2,20.7z M114.1,3.8L114.1,3.8l-1.9,15h3.7L114.1,3.8z"/>
	<path d="M128.2,2h2.1v26h-3.4l-3-23.1h-0.1v23.1h-2.1V2h3.5l2.9,22.2h0.1V2z"/>
	<path d="M135.5,4h-2.7V2h7.7v2h-2.7v24h-2.4V4z"/>
</g>
</svg>
